<svg height="480pt" viewBox="-8 0 480 480.00003" width="480pt" xmlns="http://www.w3.org/2000/svg"><path d="m396.816406 415.351562c4.058594 1.742188 8.761719-.140624 10.503906-4.199218 49.390626-115.257813.800782-173.921875-1.28125-176.359375-2.871093-3.363281-7.925781-3.761719-11.285156-.890625-3.363281 2.875-3.761718 7.925781-.890625 11.289062 1.816407 2.160156 43.953125 54.191406-1.246093 159.671875-1.730469 4.058594.148437 8.746094 4.199218 10.488281zm0 0"/><path d="m383.96875 440c2.128906.023438 4.175781-.8125 5.679688-2.320312 1.503906-1.503907 2.339843-3.550782 2.320312-5.679688-.011719-1.046875-.230469-2.078125-.640625-3.039062-.386719-.980469-.957031-1.875-1.679687-2.640626-2.5625-2.542968-6.515626-3.054687-9.640626-1.246093-3.125 1.808593-4.652343 5.488281-3.726562 8.976562.925781 3.492188 4.074219 5.929688 7.6875 5.949219zm0 0"/><path d="m167.96875 480c46.953125-.015625 91.746094-19.753906 123.4375-54.398438 5.339844 17.652344 12.644531 34.648438 21.777344 50.671876 1.46875 2.324218 4.03125 3.734374 6.785156 3.726562h96c2.757812 0 5.320312-1.421875 6.785156-3.761719 1.6875-2.695312 41.214844-67.238281 41.214844-180.238281 0-32.351562-19.585938-66.320312-36.855469-96.28125-3.816406-6.613281-7.546875-13.117188-10.992187-19.4375v-.113281c-1.746094-3.199219-3.472656-6.480469-5.144532-9.808594-.449218-.886719-.886718-1.785156-1.3125-2.664063-.640624-1.3125-1.273437-2.632812-1.871093-3.941406-.695313-1.539062-1.335938-3.042968-1.960938-4.539062s-1.113281-2.757813-1.601562-4.136719c-.488281-1.375-1.039063-2.847656-1.476563-4.222656-.296875-.917969-.546875-1.832031-.800781-2.734375-.378906-1.367188-.6875-2.695313-.953125-4-.160156-.753906-.328125-1.519532-.441406-2.257813-.347656-1.9375-.546875-3.894531-.589844-5.863281 0-8.519531 5.902344-16.585938 12.734375-25.921875l.351563-.476563.640624-.882812c10.925782-12.441406 17.359376-28.1875 18.273438-44.71875 0-35.347656-28.65625-64-64-64-35.347656 0-64 28.652344-64 64 .914062 16.515625 7.339844 32.25 18.246094 44.6875l.640625.878906.351562.480469c6.855469 9.367187 12.761719 17.433594 12.761719 25.953125-.027344 1.964844-.207031 3.921875-.535156 5.855469-.113282.738281-.28125 1.496093-.441406 2.257812-.265626 1.3125-.578126 2.648438-.953126 4-.253906.902344-.503906 1.808594-.800781 2.726563-.4375 1.390625-.949219 2.816406-1.484375 4.257812-.539062 1.4375-1.011718 2.671875-1.601562 4-.632813 1.527344-1.289063 3.070313-2.007813 4.644532-.585937 1.289062-1.199219 2.578124-1.824219 3.867187-.449218.925781-.914062 1.855469-1.382812 2.789063-1.65625 3.304687-3.378906 6.578124-5.105469 9.738281v.101562c-3.449219 6.328125-7.199219 12.800781-11 19.457031-2.207031 3.824219-4.390625 7.792969-6.601562 11.695313-47.367188-63.183594-132.363281-84.816406-204.175781-51.96875-71.8125 32.851563-111.023438 111.300781-94.199219 188.457031 16.828125 77.152344 85.144531 132.15625 164.113281 132.121094zm227.878906-304h-55.757812c.574218-1.160156 1.078125-2.320312 1.597656-3.480469.519531-1.160156 1.046875-2.199219 1.535156-3.28125 1.015625-2.277343 1.945313-4.550781 2.832032-6.824219.210937-.550781.457031-1.101562.664062-1.644531.964844-2.609375 1.816406-5.203125 2.554688-7.777343.0625-.230469.160156-.464844.214843-.695313.777344-2.726563 1.394531-5.496094 1.847657-8.296875h33.265624c.4375 2.796875 1.042969 5.570312 1.804688 8.296875.074219.238281.167969.488281.242188.726563.730468 2.570312 1.574218 5.148437 2.535156 7.738281.207031.558593.464844 1.125.679687 1.695312.878907 2.246094 1.800781 4.503907 2.808594 6.757813.503906 1.121094 1.054687 2.257812 1.601563 3.386718.542968 1.125 1.015624 2.261719 1.574218 3.398438zm-51.808594-64h47.855469l-.238281.414062c-.320312.515626-.617188 1.042969-.921875 1.601563-.476563.800781-.957031 1.664063-1.40625 2.503906-.296875.570313-.574219 1.144531-.855469 1.71875-.402344.800781-.800781 1.648438-1.144531 2.480469-.265625.609375-.503906 1.226562-.734375 1.847656-.316406.832032-.605469 1.671875-.867188 2.523438-.199218.636718-.390624 1.285156-.558593 1.933594-.089844.335937-.207031.664062-.289063 1.007812h-33.824218c-.078126-.34375-.199219-.671875-.285157-1.007812-.167969-.648438-.363281-1.296876-.5625-1.933594-.265625-.851563-.554687-1.691406-.863281-2.523438-.230469-.621094-.472656-1.238281-.734375-1.847656-.363281-.796875-.746094-1.664062-1.144531-2.480469-.28125-.574219-.5625-1.148437-.855469-1.71875-.449219-.839843-.929687-1.671875-1.410156-2.503906-.304688-.527344-.597657-1.054687-.917969-1.601563zm23.929688-96c26.496094.027344 47.972656 21.5 48 48-.667969 11.777344-5.164062 23.011719-12.800781 32h-70.398438c-7.636719-8.988281-12.132812-20.222656-12.800781-32 .027344-26.5 21.5-47.972656 48-48zm-45.289062 191.71875c3.066406-5.332031 6.046874-10.570312 8.9375-15.71875h72.703124c2.878907 5.171875 5.855469 10.410156 8.925782 15.710938 17.074218 29.609374 34.722656 60.21875 34.722656 88.289062 0 93.175781-28.542969 152.902344-36.664062 168h-86.679688c-8.8125-16.996094-15.851562-34.855469-21.007812-53.296875 39.777343-54.121094 43.15625-126.835937 8.574218-184.414063 3.457032-6.289062 6.976563-12.488281 10.488282-18.570312zm-154.710938-47.71875c83.945312 0 152 68.050781 152 152s-68.054688 152-152 152c-83.949219 0-152-68.050781-152-152 .09375-83.910156 68.089844-151.90625 152-152zm0 0"/><path d="m174.648438 439.886719c.433593.078125.878906.113281 1.320312.113281 4.152344-.011719 7.609375-3.199219 7.949219-7.339844.34375-4.140625-2.542969-7.855468-6.636719-8.546875-89.105469-14.855469-104.839844-86.648437-105.472656-89.714843-.960938-4.234376-5.125-6.925782-9.382813-6.070313-4.257812.859375-7.050781 4.957031-6.296875 9.230469.167969.839844 18.238282 85.640625 118.519532 102.328125zm0 0"/><path d="m63.96875 296v-16c0-4.417969-3.582031-8-8-8s-8 3.582031-8 8v16c0 4.417969 3.582031 8 8 8s8-3.582031 8-8zm0 0"/><path d="m183.96875 232c13.253906 0 24-10.746094 24-24s-10.746094-24-24-24-24 10.746094-24 24 10.746094 24 24 24zm0-32c4.417969 0 8 3.582031 8 8s-3.582031 8-8 8-8-3.582031-8-8 3.582031-8 8-8zm0 0"/><path d="m119.96875 264c13.253906 0 24-10.746094 24-24s-10.746094-24-24-24-24 10.746094-24 24 10.746094 24 24 24zm0-32c4.417969 0 8 3.582031 8 8s-3.582031 8-8 8-8-3.582031-8-8 3.582031-8 8-8zm0 0"/><path d="m199.96875 264c0 13.253906 10.746094 24 24 24s24-10.746094 24-24-10.746094-24-24-24-24 10.746094-24 24zm24-8c4.417969 0 8 3.582031 8 8s-3.582031 8-8 8-8-3.582031-8-8 3.582031-8 8-8zm0 0"/></svg>