<svg height="480pt" viewBox="0 -44 480.00001 480" width="480pt" xmlns="http://www.w3.org/2000/svg"><path d="m341.808594 200.304688-53.601563 15.320312-69.648437-23.199219c-.753906-.25-1.546875-.375-2.34375-.378906-.0625 0-.117188-.039063-.183594-.039063h-35.03125c-38.085938.042969-68.953125 30.90625-69 68.992188.027344 23.738281 19.261719 42.972656 43 43h61c.859375 0 1.714844-.140625 2.527344-.414062l69.648437-23.203126 53.601563 15.320313c.722656.203125 1.472656.300781 2.222656.296875 4.417969 0 8-3.582031 8-8v-80c0-2.507812-1.175781-4.875-3.179688-6.386719-2.003906-1.511719-4.597656-1.996093-7.011718-1.308593zm-213.808594 60.695312c.035156-29.257812 23.742188-52.964844 53-53h27v80h-53c-14.90625-.019531-26.980469-12.09375-27-27zm96-49.894531 56 18.664062v36.460938l-56 18.664062zm112 66.285156-40-11.421875v-35.9375l40-11.421875zm0 0"/><path d="m176 240h-8c-4.417969 0-8 3.582031-8 8s3.582031 8 8 8h8c4.417969 0 8-3.582031 8-8s-3.582031-8-8-8zm0 0"/><path d="m56 56h96c4.417969 0 8-3.582031 8-8s-3.582031-8-8-8h-96c-4.417969 0-8 3.582031-8 8s3.582031 8 8 8zm0 0"/><path d="m184 56h16c4.417969 0 8-3.582031 8-8s-3.582031-8-8-8h-16c-4.417969 0-8 3.582031-8 8s3.582031 8 8 8zm0 0"/><path d="m232 56h16c4.417969 0 8-3.582031 8-8s-3.582031-8-8-8h-16c-4.417969 0-8 3.582031-8 8s3.582031 8 8 8zm0 0"/><path d="m280 56h16c4.417969 0 8-3.582031 8-8s-3.582031-8-8-8h-16c-4.417969 0-8 3.582031-8 8s3.582031 8 8 8zm0 0"/><path d="m328 56h16c4.417969 0 8-3.582031 8-8s-3.582031-8-8-8h-16c-4.417969 0-8 3.582031-8 8s3.582031 8 8 8zm0 0"/><path d="m376 56h16c4.417969 0 8-3.582031 8-8s-3.582031-8-8-8h-16c-4.417969 0-8 3.582031-8 8s3.582031 8 8 8zm0 0"/><path d="m472 0h-464c-4.417969 0-8 3.582031-8 8v24c0 2.121094.84375 4.15625 2.34375 5.65625l42.617188 42.617188c-.570313.65625-1.144532 1.292968-1.695313 1.972656-.921875 1.128906-1.761719 2.328125-2.640625 3.496094-1.226562 1.601562-2.457031 3.273437-3.601562 4.992187-1.070313 1.601563-2.054688 3.203125-3.046876 4.882813-.800781 1.34375-1.601562 2.695312-2.402343 4.085937-1.066407 1.941406-2.082031 3.921875-3.046875 5.9375-.527344 1.113281-1.03125 2.222656-1.527344 3.351563-1.015625 2.289062-1.992188 4.59375-2.871094 6.945312-.296875.796875-.554687 1.597656-.800781 2.398438-4.773437 13.375-7.25 27.460937-7.328125 41.664062 0 124.585938 97.664062 228.617188 217.710938 231.910156 1.957031.058594 3.914062.085938 5.863281.082032 57.214843-.296876 112.023437-23.074219 152.59375-63.417969 45.597656-44.273438 71.480469-105.019531 71.832031-168.574219 0-1.351562-.191406-4.078125-.191406-4.089844v-.199218c-.796875-22.898438-7.835938-45.144532-20.351563-64.335938-.152343-.230469-.328125-.4375-.480469-.671875-1.886718-2.808594-3.847656-5.597656-5.960937-8.160156-.632813-.800781-1.335937-1.480469-1.992187-2.238281l42.648437-42.648438c1.496094-1.503906 2.332031-3.535156 2.328125-5.65625v-24c0-4.417969-3.582031-8-8-8zm-45.671875 94.894531c.40625.539063.800781 1.113281 1.175781 1.65625 1.382813 1.914063 2.726563 3.875 4 5.90625.441406.703125.847656 1.421875 1.273438 2.136719 1.132812 1.941406 2.222656 3.925781 3.246094 5.957031.410156.800781.800781 1.640625 1.214843 2.480469.914063 1.929688 1.746094 3.90625 2.554688 5.898438.398437.992187.800781 1.964843 1.199219 2.980468.617187 1.65625 1.128906 3.355469 1.671874 5.050782 2.128907 6.671874 3.628907 13.527343 4.480469 20.480468-7.71875-.847656-13.703125-2.042968-19.953125-3.289062-15.765625-3.425782-31.867187-5.035156-48-4.800782-16.128906-.242187-32.234375 1.371094-48 4.800782-14.710937 3.21875-29.742187 4.722656-44.800781 4.480468-15.054687.242188-30.089844-1.261718-44.796875-4.480468-15.75-3.429688-31.84375-5.042969-47.960938-4.800782-16.132812-.242187-32.238281 1.367188-48 4.800782-14.710937 3.21875-29.746093 4.722656-44.800781 4.480468-15.078125.242188-30.132812-1.261718-44.863281-4.480468-6.542969-1.3125-13.257812-2.648438-22.066406-3.578125.152344-.796875.363281-1.597657.53125-2.398438.46875-2.253906.980468-4.496093 1.597656-6.71875.214844-.800781.457031-1.601562.6875-2.34375.738281-2.496093 1.546875-4.960937 2.449219-7.386719.136719-.375.265625-.757812.417969-1.132812 2.234374-5.894531 4.976562-11.578125 8.199218-16.992188l.535156-.859374c1.40625-2.285157 2.910157-4.503907 4.480469-6.636719.3125-.433594.625-.875.941407-1.296875 1.800781-2.402344 3.683593-4.664063 5.664062-6.808594h361.1875c2.023438 2.199219 3.941406 4.503906 5.734375 6.894531zm-45.3125 222.21875c-38.851563 38.863281-91.925781 60.113281-146.863281 58.796875-111.464844-3.054687-202.152344-99.910156-202.152344-215.910156 0-1.160156.128906-2.328125.167969-3.488281 8 .839843 14.199219 2.0625 20.609375 3.335937 15.761718 3.425782 31.867187 5.035156 48 4.800782 16.128906.242187 32.234375-1.367188 48-4.800782 14.707031-3.21875 29.742187-4.722656 44.796875-4.480468 15.058593-.242188 30.089843 1.261718 44.800781 4.480468 15.75 3.429688 31.839844 5.042969 47.953125 4.800782 16.128906.242187 32.234375-1.367188 48-4.800782 14.726563-3.222656 29.777344-4.722656 44.847656-4.480468 15.085938-.242188 30.148438 1.261718 44.886719 4.480468 7.878906 1.671875 15.839844 2.914063 23.847656 3.71875-1.273437 57.980469-25.300781 113.132813-66.894531 153.546875zm82.984375-288.425781-43.3125 43.3125h-361.375l-43.3125-43.3125v-12.6875h448zm0 0"/><path d="m80 224h16v16h-16zm0 0"/><path d="m64 192h16v16h-16zm0 0"/></svg>