<svg height="480pt" viewBox="0 -16 480.00068 480" width="480pt" xmlns="http://www.w3.org/2000/svg"><path d="m8 448h464c2.71875 0 5.25-1.378906 6.722656-3.664062 1.476563-2.285157 1.6875-5.164063.5625-7.640626l-98.277344-217.128906c-.128906-.273437-.273437-.539062-.433593-.796875-4.339844-7.226562-12.148438-11.648437-20.574219-11.648437-8.429688 0-16.238281 4.421875-20.578125 11.648437-.160156.257813-.300781.523438-.429687.796875l-18.992188 41.960938-40-88.375v-62.265625c5.671875 1.179687 11.03125 3.558593 15.710938 6.976562 19.402343 13.515625 45.171874 13.515625 64.574218 0 6.8125-5.15625 15.171875-7.851562 23.714844-7.640625 4.417969 0 8-3.578125 8-8v-62.222656c0-4.417969-3.582031-8-8-8-11.578125-.222656-22.914062 3.335938-32.289062 10.136719-14.167969 10.1875-33.257813 10.1875-47.425782 0-7.195312-5.121094-15.53125-8.417969-24.285156-9.601563v-8.535156c0-4.417969-3.582031-8-8-8h-32c-4.417969 0-8 3.582031-8 8v135.304688c-1.53125 1.558593-2.871094 3.289062-4 5.160156-.160156.257812-.304688.523437-.433594.800781l-23.703125 52.335937c-4.597656-6.78125-12.339843-10.746093-20.527343-10.519531-8.1875.226563-15.695313 4.613281-19.914063 11.636719-.160156.261719-.300781.527344-.429687.800781l-35.34375 78.089844-13.976563-30.882813c-.128906-.273437-.273437-.539062-.433594-.796874-3.707031-6.1875-10.390625-9.972657-17.601562-9.972657-7.210938 0-13.890625 3.785157-17.597657 9.972657-.15625.257812-.296874.523437-.425781.796874l-76.902343 169.976563c-1.121094 2.476563-.90625 5.351563.566406 7.632813 1.472656 2.285156 4.003906 3.664062 6.722656 3.664062zm252.398438-16 37.601562-83.128906c7.453125 11.625 20.191406 18.792968 34 19.128906 17.847656-.699219 33.480469-12.183594 39.480469-29.007812 14.300781 7.429687 31.503906 6.542968 44.964843-2.320313l43.152344 95.328125zm99.601562-208.902344c2.675781-.019531 5.183594 1.320313 6.65625 3.558594l43.101562 95.238281c-11.269531 8.503907-26.980468 7.832031-37.488281-1.597656-2.148437-1.902344-5.148437-2.507813-7.863281-1.589844-2.71875.921875-4.734375 3.222657-5.289062 6.039063-3.117188 16.054687-14.320313 27.253906-27.117188 27.253906-12.273438-.988281-22.5625-9.667969-25.601562-21.601562l46.960937-103.757813c1.472656-2.226563 3.96875-3.5625 6.640625-3.542969zm-64.289062-167.457031c19.402343 13.515625 45.171874 13.515625 64.574218 0 4.683594-3.417969 10.039063-5.800781 15.714844-6.992187v46.046874c-8.765625 1.191407-17.101562 4.511719-24.289062 9.664063-14.167969 10.1875-33.257813 10.1875-47.425782 0-7.183594-5.152344-15.523437-8.472656-24.285156-9.664063v-46.046874c5.671875 1.191406 11.027344 3.574218 15.710938 6.992187zm-31.710938-23.640625v121.601562c-3.75-1.792968-7.847656-2.722656-12-2.730468-1.339844.007812-2.675781.105468-4 .296875v-119.167969zm-86.65625 194.65625c1.484375-2.226562 3.980469-3.5625 6.65625-3.5625 2.671875 0 5.171875 1.335938 6.65625 3.5625l6.054688 13.382812c1.296874 2.863282 4.144531 4.703126 7.289062 4.703126 3.140625 0 5.992188-1.839844 7.285156-4.703126l30.640625-67.6875c2.304688-3.277343 6.0625-5.230468 10.074219-5.230468 4.007812 0 7.765625 1.953125 10.070312 5.230468l49.128907 108.578126-68.359375 151.070312h-54.402344l-52-114.945312zm-81.695312 45.34375c1.460937-.011719 2.839843.695312 3.679687 1.894531l42.4375 93.769531c-3.871094 5.058594-9.800781 8.117188-16.167969 8.335938-11.0625 0-20.703125-9.75-23.4375-23.703125-.550781-2.816406-2.570312-5.121094-5.285156-6.042969-2.71875-.917968-5.71875-.316406-7.867188 1.585938-8.71875 7.90625-21.738281 8.761718-31.417968 2.066406l34.402344-76c.832031-1.195312 2.199218-1.910156 3.65625-1.90625zm-44.683594 92.464844c11.828125 7.054687 26.394531 7.761718 38.851562 1.886718 5.675782 14.972657 19.78125 25.078126 35.78125 25.648438 8.539063-.066406 16.765625-3.1875 23.199219-8.800781l22.089844 48.800781h-150.488281zm0 0"/><path d="m104 152c30.925781 0 56-25.070312 56-56 0-30.925781-25.074219-56-56-56-30.929688 0-56 25.074219-56 56 .035156 30.914062 25.085938 55.964844 56 56zm0-96c22.089844 0 40 17.910156 40 40s-17.910156 40-40 40c-22.09375 0-40-17.910156-40-40 .023438-22.082031 17.917969-39.972656 40-40zm0 0"/><path d="m96 176v8c0 4.417969 3.582031 8 8 8s8-3.582031 8-8v-8c0-4.417969-3.582031-8-8-8s-8 3.582031-8 8zm0 0"/><path d="m104 24c4.417969 0 8-3.582031 8-8v-8c0-4.417969-3.582031-8-8-8s-8 3.582031-8 8v8c0 4.417969 3.582031 8 8 8zm0 0"/><path d="m184 104h8c4.417969 0 8-3.582031 8-8s-3.582031-8-8-8h-8c-4.417969 0-8 3.582031-8 8s3.582031 8 8 8zm0 0"/><path d="m16 104h8c4.417969 0 8-3.582031 8-8s-3.582031-8-8-8h-8c-4.417969 0-8 3.582031-8 8s3.582031 8 8 8zm0 0"/><path d="m42.34375 45.65625c3.136719 3.03125 8.128906 2.988281 11.214844-.097656 3.085937-3.085938 3.128906-8.074219.097656-11.214844l-8-8c-2.011719-2.078125-4.984375-2.914062-7.78125-2.179688-2.796875.730469-4.980469 2.914063-5.714844 5.710938-.730468 2.796875.101563 5.773438 2.183594 7.78125zm0 0"/><path d="m160 48c2.121094 0 4.15625-.84375 5.65625-2.34375l8-8c2.078125-2.007812 2.910156-4.984375 2.179688-7.78125-.730469-2.796875-2.917969-4.980469-5.714844-5.710938-2.796875-.734374-5.769532.101563-7.777344 2.179688l-8 8c-2.289062 2.289062-2.972656 5.730469-1.734375 8.71875s4.152344 4.9375 7.390625 4.9375zm0 0"/><path d="m42.34375 146.34375-8 8c-2.082031 2.007812-2.914062 4.984375-2.183594 7.78125.734375 2.796875 2.917969 4.980469 5.714844 5.714844 2.796875.730468 5.769531-.105469 7.78125-2.183594l8-8c3.03125-3.140625 2.988281-8.128906-.097656-11.214844-3.085938-3.085937-8.078125-3.128906-11.214844-.097656zm0 0"/><path d="m165.65625 146.34375c-3.140625-3.03125-8.128906-2.988281-11.214844.097656-3.085937 3.085938-3.128906 8.074219-.097656 11.214844l8 8c3.136719 3.03125 8.128906 2.988281 11.214844-.097656 3.085937-3.085938 3.128906-8.074219.097656-11.214844zm0 0"/></svg>