<svg height="480pt" viewBox="-96 0 480 480" width="480pt" xmlns="http://www.w3.org/2000/svg"><path d="m64 392c-13.253906 0-24 10.746094-24 24v8h-16c-13.253906 0-24 10.746094-24 24v32h288v-32c0-13.253906-10.746094-24-24-24h-16v-8c0-13.253906-10.746094-24-24-24h-.695312l-22.503907-248h23.199219c13.253906 0 24-10.746094 24-24s-10.746094-24-24-24h-4.902344l32-96h-48.640625l-24 64h-10.457031v-64h-48v64h-10.457031l-24-64h-48.648438l32 96h-4.894531c-13.253906 0-24 10.746094-24 24s10.746094 24 24 24h23.238281l-22.542969 248zm200 48c4.417969 0 8 3.582031 8 8v16h-256v-16c0-4.417969 3.582031-8 8-8zm-32-24v8h-176v-8c0-4.417969 3.582031-8 8-8h160c4.417969 0 8 3.582031 8 8zm-172.894531-400h15.351562l24 64h37.542969v-64h16v64h37.542969l24-64h15.351562l-26.664062 80h-116.460938zm4.894531 112c-4.417969 0-8-3.582031-8-8s3.582031-8 8-8h160c4.417969 0 8 3.582031 8 8s-3.582031 8-8 8zm31.304688 104h64.695312c4.417969 0 8-3.582031 8-8s-3.582031-8-8-8h-63.199219l1.457031-16h29.742188c4.417969 0 8-3.582031 8-8s-3.582031-8-8-8h-28.335938l3.640626-40h81.390624l18.183594 200h-50.878906c-4.417969 0-8 3.582031-8 8s3.582031 8 8 8h52.335938l2.902343 32h-126.4375zm0 0"/></svg>