<svg height="480pt" viewBox="0 -24 480.03722 480" width="480pt" xmlns="http://www.w3.org/2000/svg"><path d="m216 72.019531c0 4.417969 3.582031 8 8 8s8-3.582031 8-8c0-13.253906 10.746094-24 24-24 4.417969 0 8-3.582031 8-8s-3.582031-8-8-8c-13.253906 0-24-10.746093-24-24 0-4.417969-3.582031-7.9999998-8-7.9999998s-8 3.5820308-8 7.9999998c0 13.253907-10.746094 24-24 24-4.417969 0-8 3.582031-8 8s3.582031 8 8 8c13.253906 0 24 10.746094 24 24zm8-40.25c2.332031 3.140625 5.109375 5.917969 8.246094 8.25-3.136719 2.328125-5.914063 5.109375-8.246094 8.246094-2.332031-3.136719-5.109375-5.917969-8.246094-8.246094 3.136719-2.332031 5.914063-5.109375 8.246094-8.25zm0 0"/><path d="m448 8.019531h16v16h-16zm0 0"/><path d="m448 40.019531h16v16h-16zm0 0"/><path d="m432 24.019531h16v16h-16zm0 0"/><path d="m464 24.019531h16v16h-16zm0 0"/><path d="m16 160.019531h16v16h-16zm0 0"/><path d="m16 128.019531h16v16h-16zm0 0"/><path d="m32 144.019531h16v16h-16zm0 0"/><path d="m0 144.019531h16v16h-16zm0 0"/><path d="m381.214844 127.394531 34.066406-50.929687c.125-.191406.679688-1.375.734375-1.519532.144531-.375.261719-.757812.351563-1.152343.082031-.324219.144531-.65625.183593-.992188.019531-.726562-.007812-1.457031-.078125-2.183593-.082031-.359376-.183594-.71875-.304687-1.070313-.101563-.355469-.230469-.699219-.382813-1.03125 0-.082031-.050781-.175781-.097656-.265625-.289062-.484375-.609375-.957031-.953125-1.40625l-27.160156-32c-1.515625-1.792969-3.746094-2.824219-6.09375-2.824219h-72.425781c-2.347657-.003906-4.582032 1.03125-6.101563 2.824219l-27.152344 32c-.183593.214844-.800781 1.152344-.960937 1.40625 0 .089844-.054688.183594-.097656.273438-.148438.328124-.273438.667968-.375 1.015624-.128907.351563-.230469.710938-.304688 1.078126-.050781.34375-.082031.6875-.085938 1.035156-.027343.382812-.027343.765625 0 1.148437.035157.332031.097657.664063.183594.984375.082032.398438.199219.789063.34375 1.167969.054688.136719.617188 1.320313.734375 1.511719l34.128907 51.019531c-35.738282 9.957031-65.796876 34.195313-83.101563 67.015625-43.417969-38.519531-106.503906-45.210938-157.03125-16.652344-50.527344 28.554688-77.34375 86.050782-66.742187 143.113282 10.601562 57.0625 56.273437 101.089843 113.6875 109.59375 57.410156 8.503906 113.886718-20.394532 140.574218-71.9375 41.699219 36.449218 101.464844 43.648437 150.628906 18.144531 49.164063-25.503907 77.699219-78.507813 71.917969-133.59375-5.78125-55.082031-44.695312-101.007813-98.085937-115.75zm-15.808594-5.144531 11.257812-42.230469h16.992188zm-93.453125 172.800781c-.105469-16-3.046875-31.851562-8.6875-46.824219 4.449219-40.75 38.101563-72.078124 79.066406-73.605468 40.964844-1.53125 76.859375 27.199218 84.335938 67.503906 7.480469 40.304688-15.71875 80-54.503907 93.269531-38.789062 13.265625-81.4375-3.902343-100.210937-40.34375zm73.3125-159.3125-14.867187-55.71875h29.699218zm-32.464844-87.71875h65.015625l13.597656 16h-92.214843zm1.09375 32 11.265625 42.222657-28.289062-42.222657zm-103.285156 178.886719c.191406 15.390625 3.042969 30.628906 8.421875 45.046875-3.859375 41.542969-37.746094 73.882813-79.417969 75.804687-41.675781 1.921876-78.394531-27.160156-86.0625-68.171874-7.667969-41.007813 16.058594-81.394532 55.613281-94.660157 39.550782-13.269531 82.832032 4.644531 101.445313 41.980469zm-74.609375 157.113281c-54.082031.054688-101.515625-36.074219-115.839844-88.222656-14.320312-52.152344 8.011719-107.4375 54.539063-135.011719 46.523437-27.570312 105.742187-20.617187 144.613281 16.984375-2.871094 7.519531-5.058594 15.285157-6.527344 23.199219-28.773437-35.121094-77.679687-46.300781-118.851562-27.167969-41.175782 19.132813-64.164063 63.722657-55.871094 108.363281 8.296875 44.636719 45.769531 77.992188 91.066406 81.058594 45.300782 3.066406 86.925782-24.9375 101.160156-68.050781 4.207032 6.917969 9.023438 13.445313 14.398438 19.503906-19.628906 42.308594-62.042969 69.371094-108.6875 69.34375zm209.265625-40c-60.371094-.050781-111.089844-45.402343-117.859375-105.390625-6.769531-59.988281 32.5625-115.507812 91.402344-129.011718l12.246094 18.3125c-51.109376 7.449218-87.792969 53.105468-84.0625 104.621093 3.734374 51.515625 46.621093 91.40625 98.273437 91.40625 51.648437 0 94.535156-39.890625 98.269531-91.40625s-32.949218-97.171875-84.0625-104.621093l12.230469-18.3125c58.890625 13.441406 98.292969 68.972656 91.53125 128.996093-6.761719 60.027344-57.523437 105.398438-117.929687 105.40625zm0 0"/></svg>